<svg width="184" height="184" viewBox="0 0 184 184" fill="none" xmlns="http://www.w3.org/2000/svg">
<g id="POSH Illustration">
<path id="Vector" d="M182.561 91.7915C182.579 103.888 180.168 115.865 175.471 127.012C175.331 127.342 175.191 127.672 175.041 128.012C169.809 140.048 162.022 150.803 152.221 159.532L151.481 160.191C140.429 169.85 127.202 176.685 112.931 180.112C98.6595 183.539 83.7704 183.455 69.5386 179.868C55.3069 176.281 42.1568 169.298 31.2147 159.516C20.2726 149.735 11.8647 137.446 6.71124 123.704C1.55778 109.962 -0.187657 95.1751 1.62446 80.6106C3.43657 66.0461 8.75222 52.1379 17.1161 40.0775C25.4799 28.017 36.6426 18.1638 49.648 11.3617C62.6535 4.5597 77.1139 1.01165 91.7907 1.0215C97.311 1.02334 102.82 1.52202 108.251 2.51151C129.118 6.3633 147.977 17.4028 161.552 33.7125C175.127 50.0221 182.56 70.5716 182.561 91.7915Z" fill="#F2F54E"/>
<path id="Vector_2" d="M91.7926 183.56C69.4754 183.564 47.9216 175.435 31.1643 160.695C14.4069 145.956 3.5941 125.616 0.749062 103.481C-2.09598 81.3456 3.22168 58.9322 15.7071 40.4342C28.1924 21.9362 46.99 8.62121 68.5826 2.98048C81.6041 -0.383529 95.2011 -0.87827 108.433 1.53049C121.929 4.02094 134.696 9.50499 145.794 17.5793C156.892 25.6537 166.039 36.113 172.563 48.188C179.086 60.2631 182.82 73.6468 183.49 87.3549C184.159 101.063 181.748 114.747 176.433 127.4C176.293 127.74 176.143 128.08 175.993 128.4C170.69 140.551 162.824 151.413 152.933 160.24L152.433 160.69L152.183 160.91C135.458 175.522 114.001 183.57 91.7926 183.56ZM91.7926 2.02048C80.0009 2.00996 68.3228 4.32475 57.4267 8.83238C46.5305 13.34 36.6302 19.952 28.2922 28.29C19.9542 36.6281 13.3422 46.5284 8.83453 57.4245C4.3269 68.3207 2.01211 79.9988 2.02264 91.7905C1.99125 104.294 4.598 116.663 9.67263 128.09C15.3642 140.954 23.9986 152.3 34.8799 161.215C45.7612 170.129 58.5849 176.361 72.317 179.41C86.0491 182.459 100.305 182.238 113.937 178.766C127.568 175.294 140.192 168.667 150.793 159.42L151.043 159.2L151.523 158.77C161.204 150.128 168.903 139.495 174.093 127.6C174.253 127.26 174.383 126.94 174.523 126.6C179.717 114.228 182.074 100.85 181.42 87.4471C180.766 74.0447 177.119 60.9589 170.745 49.1508C164.372 37.3427 155.434 27.1123 144.589 19.2109C133.743 11.3095 121.266 5.93786 108.073 3.49048C102.701 2.51592 97.2523 2.02396 91.7926 2.02048Z" fill="#093F68"/>
<path id="Vector_3" d="M43.1291 80.6511C42.2591 83.5111 38.3191 87.5811 34.1291 94.0411C29.9391 100.501 32.0791 112.251 32.0791 112.251L26.7891 117.471L49.1791 139.851C53.1791 136.031 61.5291 130.051 67.3691 126.351C73.9791 122.161 93.5191 101.911 95.9491 99.2611C98.6791 96.2611 96.9491 91.6511 93.1891 91.8911C90.3091 92.0811 86.5591 95.2911 84.9291 96.8111C87.2091 94.5811 93.5291 88.2611 95.1991 85.2211C97.2491 81.4911 95.0091 79.4411 91.8491 77.9511C90.8491 77.5011 89.5891 77.9511 88.2191 78.8411C89.1042 77.9826 89.9015 77.0379 90.5991 76.0211C92.0891 73.5411 91.2191 69.9311 87.3691 68.8211C85.3691 68.2211 83.1691 69.6511 81.5691 71.1211C85.0691 66.8811 84.7491 64.9511 82.0291 62.2311C78.7991 59.0011 78.0291 60.4911 70.8391 67.7011L53.3191 85.2211C53.3191 85.2211 56.0591 74.7811 55.5091 71.5011C54.9591 68.2211 52.2091 67.2011 48.3491 69.5611C44.4891 71.9211 43.9991 77.7911 43.1291 80.6511Z" fill="#E28362"/>
<path id="Vector_4" d="M49.2089 140.85C49.0773 140.851 48.9468 140.826 48.825 140.776C48.7032 140.726 48.5924 140.653 48.4989 140.56L26.1189 118.17C25.9327 117.983 25.8281 117.73 25.8281 117.465C25.8281 117.201 25.9327 116.948 26.1189 116.76L30.9689 111.9C30.5889 109.48 29.3289 99.5004 33.2589 93.4904C35.0089 90.8104 36.6889 88.5704 38.1689 86.5904C40.1689 83.9604 41.7189 81.8704 42.1689 80.3604C42.3289 79.8204 42.4889 79.1304 42.6589 78.3604C43.3989 75.1704 44.4089 70.7804 47.8489 68.6804C50.8489 66.8504 52.8489 67.1004 53.9989 67.6804C54.6949 68.032 55.2907 68.5536 55.7312 69.197C56.1718 69.8403 56.4427 70.5844 56.5189 71.3604C56.8889 73.6004 55.9289 78.5804 55.1489 82.0104L70.1489 67.0104L72.1489 65.0104C75.7889 61.3304 77.4489 59.6504 79.3189 59.6504C80.5689 59.6504 81.5889 60.4104 82.7389 61.5604C84.9489 63.7704 85.6289 65.6604 84.7389 67.9804C85.6717 67.6605 86.6799 67.6326 87.6289 67.9004C88.5727 68.129 89.4493 68.5768 90.1877 69.2075C90.9261 69.8382 91.5055 70.634 91.8789 71.5304C92.1949 72.3501 92.3195 73.2311 92.2432 74.1063C92.1669 74.9815 91.8919 75.8277 91.4389 76.5804L91.2789 76.8204C91.6254 76.8452 91.9643 76.9333 92.2789 77.0804C93.8789 77.8404 96.0889 79.0804 96.7789 81.2204C96.9859 81.9802 97.0313 82.775 96.9125 83.5535C96.7937 84.3319 96.5131 85.0769 96.0889 85.7404C94.8502 87.6856 93.4234 89.5043 91.8289 91.1704C92.2516 91.0424 92.688 90.9651 93.1289 90.9404C94.0846 90.8442 95.0465 91.0476 95.8815 91.5224C96.7164 91.9972 97.383 92.7199 97.7889 93.5904C98.2634 94.6364 98.4132 95.8007 98.2189 96.9327C98.0246 98.0648 97.4951 99.1125 96.6989 99.9404C95.0489 101.79 74.7889 122.79 67.9289 127.19C62.2189 130.81 53.9289 136.73 49.9289 140.58C49.8327 140.671 49.7195 140.741 49.5959 140.787C49.4723 140.834 49.3408 140.855 49.2089 140.85ZM28.2089 117.46L49.2089 138.46C54.7696 133.719 60.6576 129.375 66.8289 125.46C73.2389 121.41 92.3089 101.71 95.2089 98.5404C95.7328 98.006 96.0843 97.3268 96.218 96.5905C96.3517 95.8543 96.2614 95.0948 95.9589 94.4104C95.7298 93.8975 95.3442 93.4704 94.8574 93.1901C94.3705 92.9099 93.8075 92.791 93.2489 92.8504C91.4589 92.9704 88.5989 94.7104 85.6189 97.5004C85.5244 97.5917 85.4128 97.6634 85.2905 97.7115C85.1682 97.7597 85.0376 97.7833 84.9062 97.7809C84.7749 97.7786 84.6452 97.7504 84.5247 97.698C84.4042 97.6456 84.2952 97.5699 84.2039 97.4754C84.1126 97.3808 84.0409 97.2692 83.9928 97.147C83.9446 97.0247 83.921 96.8941 83.9234 96.7627C83.9257 96.6313 83.9539 96.5017 84.0063 96.3812C84.0587 96.2607 84.1344 96.1517 84.2289 96.0604C86.2289 94.1404 92.6989 87.6604 94.3289 84.7004C94.6173 84.2743 94.8143 83.7931 94.9072 83.287C95.0002 82.781 94.9871 82.2611 94.8689 81.7604C94.5289 80.7604 93.3989 79.7604 91.4189 78.8104C90.9189 78.5804 89.9489 78.8804 88.7589 79.6404C88.5523 79.7771 88.3023 79.8322 88.0574 79.7952C87.8125 79.7581 87.59 79.6314 87.4331 79.4397C87.2763 79.2479 87.1961 79.0048 87.2083 78.7574C87.2205 78.5099 87.324 78.2758 87.4989 78.1004C88.3324 77.2987 89.0859 76.4179 89.7489 75.4704C90.0452 74.9805 90.2254 74.4293 90.2756 73.859C90.3259 73.2888 90.2449 72.7145 90.0389 72.1804C89.7717 71.5717 89.3657 71.034 88.8535 70.6103C88.3412 70.1866 87.7369 69.8887 87.0889 69.7404C85.4689 69.2604 83.5589 70.6004 82.2489 71.8104C82.0626 71.9812 81.8184 72.0751 81.5657 72.0732C81.3129 72.0713 81.0702 71.9737 80.8864 71.8001C80.7027 71.6265 80.5915 71.3897 80.5753 71.1375C80.559 70.8852 80.6389 70.6361 80.7989 70.4404C84.1189 66.4404 83.5489 65.1204 81.3189 62.9004C80.3889 61.9704 79.7889 61.5704 79.3189 61.5704C78.3189 61.5704 76.5089 63.3604 73.5789 66.3304C72.9689 66.9504 72.2989 67.6304 71.5789 68.3304L54.0589 85.8504C53.9019 86.0119 53.6949 86.1157 53.4715 86.1449C53.2482 86.1741 53.0215 86.127 52.8282 86.0112C52.6349 85.8955 52.4864 85.7179 52.4067 85.5072C52.3269 85.2965 52.3207 85.0651 52.3889 84.8504C53.1289 82.0104 54.9689 74.0704 54.5589 71.5604C54.5237 71.1095 54.3797 70.6739 54.1394 70.2907C53.8991 69.9076 53.5695 69.5884 53.1789 69.3604C52.1789 68.9004 50.6489 69.2304 48.9089 70.3004C46.1789 71.9704 45.2789 75.8804 44.6189 78.7304C44.4389 79.5004 44.2689 80.2304 44.0889 80.8304C43.5289 82.6804 41.9489 84.7804 39.7689 87.6904C38.3089 89.6904 36.6489 91.8504 34.9289 94.4804C30.9789 100.48 32.9989 111.84 33.0289 111.95C33.0581 112.11 33.0479 112.275 32.9991 112.43C32.9503 112.585 32.8644 112.726 32.7489 112.84L28.2089 117.46Z" fill="#093F68"/>
<path id="Vector_5" d="M61.4227 92.3013C61.2904 92.3007 61.1595 92.2739 61.0376 92.2224C60.9157 92.1709 60.8053 92.0958 60.7127 92.0013C60.5264 91.8139 60.4219 91.5605 60.4219 91.2963C60.4219 91.0321 60.5264 90.7786 60.7127 90.5913L80.8927 70.4113C80.9859 70.318 81.0966 70.2441 81.2184 70.1936C81.3402 70.1432 81.4708 70.1172 81.6027 70.1172C81.7345 70.1172 81.8651 70.1432 81.9869 70.1936C82.1087 70.2441 82.2194 70.318 82.3127 70.4113C82.4059 70.5045 82.4799 70.6152 82.5303 70.737C82.5808 70.8589 82.6068 70.9894 82.6068 71.1213C82.6068 71.2531 82.5808 71.3837 82.5303 71.5055C82.4799 71.6273 82.4059 71.738 82.3127 71.8313L62.1327 92.0013C62.04 92.0958 61.9296 92.1709 61.8077 92.2224C61.6858 92.2739 61.555 92.3007 61.4227 92.3013Z" fill="#093F68"/>
<path id="Vector_6" d="M68.6102 99.4817C68.4786 99.4825 68.3481 99.4573 68.2263 99.4075C68.1044 99.3577 67.9936 99.2844 67.9002 99.1917C67.7139 99.0044 67.6094 98.7509 67.6094 98.4867C67.6094 98.2226 67.7139 97.9691 67.9002 97.7817L87.5402 78.1317C87.6331 78.038 87.7437 77.9636 87.8656 77.9128C87.9874 77.8621 88.1182 77.8359 88.2502 77.8359C88.3822 77.8359 88.5129 77.8621 88.6347 77.9128C88.7566 77.9636 88.8672 78.038 88.9602 78.1317C89.1464 78.3191 89.251 78.5725 89.251 78.8367C89.251 79.1009 89.1464 79.3544 88.9602 79.5417L69.3102 99.1917C69.1239 99.3765 68.8725 99.4806 68.6102 99.4817Z" fill="#093F68"/>
<path id="Vector_7" d="M75.3914 107.391C75.2591 107.391 75.1282 107.364 75.0063 107.312C74.8845 107.261 74.774 107.186 74.6814 107.091C74.4952 106.904 74.3906 106.65 74.3906 106.386C74.3906 106.122 74.4952 105.869 74.6814 105.681L84.2614 96.1113C84.3511 96.0066 84.4614 95.9215 84.5854 95.8615C84.7095 95.8015 84.8446 95.7678 84.9824 95.7625C85.1201 95.7571 85.2574 95.7804 85.3857 95.8306C85.5141 95.8809 85.6306 95.9572 85.7281 96.0546C85.8255 96.1521 85.9018 96.2686 85.9521 96.3969C86.0023 96.5253 86.0255 96.6626 86.0202 96.8003C86.0149 96.938 85.9812 97.0732 85.9211 97.1972C85.8611 97.3213 85.7761 97.4316 85.6714 97.5213L76.1014 107.091C76.0088 107.186 75.8983 107.261 75.7765 107.312C75.6546 107.364 75.5237 107.391 75.3914 107.391Z" fill="#093F68"/>
<path id="Vector_8" d="M51.18 141.791L32.49 160.511C22.3085 151.73 14.2006 140.801 8.75 128.511L23.3 113.961L49.21 139.871L51.18 141.791Z" fill="#F5C60A"/>
<path id="Vector_9" d="M32.4942 161.512C32.2524 161.514 32.0179 161.429 31.8342 161.272C21.5533 152.376 13.359 141.324 7.83419 128.902C7.75323 128.717 7.72995 128.513 7.76743 128.314C7.80491 128.116 7.90138 127.934 8.04419 127.792L22.5942 113.242C22.7816 113.056 23.035 112.951 23.2992 112.951C23.5634 112.951 23.8168 113.056 24.0042 113.242L51.8742 141.122C52.0604 141.309 52.165 141.563 52.165 141.827C52.165 142.091 52.0604 142.345 51.8742 142.532L33.1942 161.222C33.0079 161.407 32.7565 161.511 32.4942 161.512ZM9.95419 128.722C15.222 140.334 22.8864 150.701 32.4442 159.142L49.7942 141.792L23.3342 115.342L9.95419 128.722Z" fill="#093F68"/>
<path id="Vector_10" d="M103.133 125.301C105.993 126.171 110.063 130.121 116.523 134.301C122.983 138.481 134.733 136.361 134.733 136.361L139.943 141.571L162.334 119.191C158.514 115.191 152.534 106.841 148.834 101.001C144.644 94.3814 124.393 74.8514 121.743 72.4214C118.743 69.6914 114.133 71.4214 114.373 75.1814C114.563 78.0614 117.773 81.8014 119.293 83.4314C117.063 81.1614 110.743 74.8414 107.703 73.1714C103.973 71.1714 101.923 73.3514 100.433 76.5214C99.9835 77.4714 100.433 78.7814 101.323 80.1514C100.465 79.2636 99.5201 78.463 98.5035 77.7614C96.0235 76.2714 92.4135 77.1414 91.2935 80.9914C90.7035 82.9914 92.1335 85.2014 93.6035 86.8014C89.3635 83.2914 87.4335 83.6214 84.7135 86.3414C81.4835 89.5714 82.9735 90.3414 90.1835 97.5214L107.703 115.041C107.703 115.041 97.2635 112.311 93.9835 112.851C90.7035 113.391 89.6835 116.161 92.0435 120.011C94.4035 123.861 100.273 124.431 103.133 125.301Z" fill="#FFC9B0"/>
<path id="Vector_11" d="M139.956 142.611C139.824 142.612 139.694 142.586 139.572 142.537C139.45 142.487 139.339 142.414 139.246 142.321L134.386 137.471C131.966 137.851 121.976 139.101 115.976 135.181C113.296 133.421 111.056 131.751 109.076 130.261C106.446 128.261 104.356 126.721 102.846 126.261C102.306 126.101 101.616 125.941 100.846 125.771C97.6459 125.031 93.2659 124.011 91.1659 120.581C89.3359 117.581 89.586 115.581 90.116 114.421C90.4681 113.726 90.9901 113.132 91.6335 112.693C92.2768 112.254 93.0207 111.985 93.7959 111.911C96.0359 111.541 101.016 112.501 104.446 113.271L89.4459 98.2709L87.4459 96.2709C83.7659 92.6409 82.0859 90.9809 82.0859 89.1109C82.0859 87.8609 82.8459 86.8309 83.9959 85.6809C86.2059 83.4709 88.0959 82.7809 90.4059 83.6809C90.0973 82.7496 90.0695 81.748 90.3259 80.8009C90.5593 79.8566 91.0099 78.9797 91.6418 78.2401C92.2737 77.5006 93.0695 76.9187 93.9659 76.5409C94.7796 76.2352 95.6517 76.1168 96.5173 76.1947C97.383 76.2727 98.22 76.5448 98.9659 76.9909C99.0459 76.9909 99.1259 77.0909 99.2059 77.1409C99.231 76.7945 99.3191 76.4556 99.4659 76.1409C100.226 74.5409 101.466 72.3309 103.606 71.6309C104.367 71.4261 105.162 71.3825 105.94 71.5031C106.718 71.6236 107.463 71.9056 108.126 72.3309C110.071 73.5654 111.89 74.989 113.556 76.5809C113.428 76.1617 113.351 75.7286 113.326 75.2909C113.237 74.3326 113.448 73.3702 113.93 72.537C114.412 71.7039 115.141 71.0413 116.016 70.6409C117.061 70.1652 118.225 70.0137 119.357 70.2063C120.489 70.3988 121.537 70.9264 122.366 71.7209C124.456 73.6509 145.216 93.5609 149.616 100.511C153.236 106.211 159.156 114.511 163.006 118.511C163.186 118.697 163.287 118.947 163.287 119.206C163.287 119.465 163.186 119.714 163.006 119.901L140.616 142.291C140.444 142.477 140.209 142.592 139.956 142.611ZM134.736 135.401C134.998 135.402 135.25 135.506 135.436 135.691L139.956 140.201L160.956 119.201C156.208 113.645 151.863 107.757 147.956 101.581C143.956 95.1909 124.196 76.1009 121.026 73.2009C120.493 72.6747 119.814 72.3216 119.077 72.1878C118.34 72.054 117.58 72.1457 116.896 72.4509C116.384 72.6813 115.958 73.0672 115.678 73.5537C115.398 74.0402 115.278 74.6026 115.336 75.1609C115.456 76.9509 117.196 79.8109 119.986 82.7909C120.088 82.8829 120.17 82.995 120.227 83.1202C120.284 83.2454 120.315 83.3811 120.317 83.5186C120.319 83.6562 120.293 83.7927 120.24 83.9197C120.187 84.0466 120.108 84.1613 120.009 84.2564C119.91 84.3516 119.792 84.4253 119.663 84.4728C119.534 84.5204 119.396 84.5408 119.259 84.5328C119.122 84.5247 118.987 84.4884 118.865 84.4262C118.742 84.3639 118.634 84.277 118.546 84.1709C116.626 82.2209 110.146 75.7109 107.186 74.0809C106.76 73.7925 106.279 73.5956 105.773 73.5026C105.267 73.4097 104.747 73.4227 104.246 73.5409C103.196 73.8809 102.246 75.0109 101.246 76.9909C101.016 77.4809 101.316 78.4509 102.076 79.6509C102.204 79.8577 102.252 80.1038 102.211 80.3434C102.17 80.583 102.044 80.7995 101.855 80.9527C101.667 81.1058 101.429 81.185 101.186 81.1755C100.943 81.166 100.712 81.0684 100.536 80.9009C99.7379 80.0666 98.8567 79.316 97.9059 78.6609C97.4161 78.3646 96.8649 78.1845 96.2946 78.1342C95.7243 78.0839 95.1501 78.1649 94.616 78.3709C94.0084 78.6372 93.4715 79.0416 93.0479 79.552C92.6243 80.0625 92.3257 80.6647 92.1759 81.3109C91.6959 82.9409 93.0359 84.8509 94.2459 86.1609C94.4168 86.3473 94.5107 86.5914 94.5088 86.8442C94.5068 87.097 94.4093 87.3397 94.2357 87.5234C94.062 87.7072 93.8253 87.8183 93.573 87.8346C93.3207 87.8508 93.0717 87.7709 92.8759 87.6109C88.8759 84.2909 87.5559 84.8609 85.3359 87.0809C84.3959 88.0209 84.006 88.6209 84.006 89.0809C84.006 90.0809 85.7959 91.8909 88.7659 94.8309C89.3859 95.4409 90.0659 96.1109 90.7659 96.8309L108.296 114.351C108.457 114.508 108.561 114.715 108.59 114.938C108.62 115.162 108.573 115.388 108.457 115.582C108.341 115.775 108.163 115.923 107.953 116.003C107.742 116.083 107.511 116.089 107.296 116.021C104.446 115.281 96.5159 113.441 93.9959 113.851C93.5473 113.885 93.1136 114.027 92.7321 114.266C92.3507 114.505 92.0329 114.832 91.8059 115.221C91.3359 116.221 91.6659 117.761 92.7359 119.501C94.4059 122.221 98.3159 123.131 101.166 123.791C101.936 123.971 102.666 124.131 103.266 124.321C105.116 124.881 107.266 126.461 110.116 128.641C112.116 130.101 114.276 131.761 116.916 133.481C122.966 137.431 134.276 135.401 134.386 135.381L134.736 135.401Z" fill="#093F68"/>
<path id="Vector_12" d="M113.792 108.022C113.66 108.021 113.529 107.994 113.407 107.943C113.285 107.891 113.175 107.816 113.082 107.722L92.8924 87.5417C92.7061 87.3544 92.6016 87.1009 92.6016 86.8367C92.6016 86.5725 92.7061 86.3191 92.8924 86.1317C92.9853 86.038 93.0959 85.9636 93.2178 85.9128C93.3396 85.8621 93.4703 85.8359 93.6024 85.8359C93.7344 85.8359 93.8651 85.8621 93.9869 85.9128C94.1088 85.9636 94.2194 86.038 94.3124 86.1317L114.482 106.312C114.669 106.499 114.773 106.753 114.773 107.017C114.773 107.281 114.669 107.534 114.482 107.722C114.3 107.908 114.053 108.015 113.792 108.022Z" fill="#093F68"/>
<path id="Vector_13" d="M120.965 100.79C120.834 100.791 120.703 100.766 120.581 100.716C120.459 100.666 120.349 100.593 120.255 100.5L100.615 80.8904C100.51 80.8008 100.425 80.6904 100.365 80.5664C100.305 80.4423 100.272 80.3072 100.266 80.1695C100.261 80.0317 100.284 79.8944 100.335 79.7661C100.385 79.6378 100.461 79.5212 100.559 79.4237C100.656 79.3263 100.773 79.25 100.901 79.1998C101.029 79.1495 101.166 79.1263 101.304 79.1316C101.442 79.1369 101.577 79.1707 101.701 79.2307C101.825 79.2907 101.936 79.3757 102.025 79.4804L121.675 99.1204C121.769 99.2134 121.843 99.324 121.894 99.4458C121.945 99.5677 121.971 99.6984 121.971 99.8304C121.971 99.9624 121.945 100.093 121.894 100.215C121.843 100.337 121.769 100.447 121.675 100.54C121.48 100.713 121.225 100.803 120.965 100.79Z" fill="#093F68"/>
<path id="Vector_14" d="M128.872 94.0517C128.74 94.0511 128.609 94.0243 128.487 93.9729C128.365 93.9214 128.255 93.8462 128.162 93.7517L118.592 84.1817C118.428 83.9904 118.343 83.7443 118.352 83.4926C118.362 83.241 118.466 83.0022 118.644 82.8241C118.823 82.646 119.061 82.5417 119.313 82.532C119.565 82.5223 119.811 82.6079 120.002 82.7717L129.572 92.3417C129.758 92.5291 129.863 92.7825 129.863 93.0467C129.863 93.3109 129.758 93.5643 129.572 93.7517C129.387 93.9401 129.136 94.0479 128.872 94.0517Z" fill="#093F68"/>
<path id="Vector_15" d="M175.04 127.992C169.808 140.028 162.021 150.783 152.22 159.512L151.48 160.172L136.43 145.172L139.94 141.662L162.33 119.262L164.33 117.262L175.04 127.992Z" fill="#F5C60A"/>
<path id="Vector_16" d="M151.48 161.171C151.349 161.171 151.218 161.146 151.097 161.096C150.975 161.047 150.864 160.973 150.77 160.881L135.72 145.791C135.534 145.603 135.43 145.35 135.43 145.086C135.43 144.821 135.534 144.568 135.72 144.381L139.23 140.871L139.32 140.791L163.59 116.511C163.683 116.417 163.794 116.343 163.916 116.292C164.038 116.241 164.168 116.215 164.3 116.215C164.433 116.215 164.563 116.241 164.685 116.292C164.807 116.343 164.918 116.417 165.01 116.511L175.79 127.291C175.931 127.432 176.026 127.612 176.064 127.809C176.101 128.005 176.079 128.207 176 128.391C170.697 140.55 162.827 151.418 152.93 160.251L152.43 160.701L152.18 160.921C151.988 161.091 151.737 161.18 151.48 161.171ZM137.84 145.171L151.52 158.791C161.032 150.3 168.633 139.887 173.82 128.241L164.27 118.691L140.63 142.341L140.54 142.421L137.84 145.171Z" fill="#093F68"/>
<path id="Vector_17" d="M117.79 69.311C116.38 66.671 116.29 61.001 114.71 53.451C113.13 45.901 103.29 39.121 103.29 39.121V31.791H71.6201C71.4601 37.351 69.8201 47.451 68.3101 54.201C66.5901 61.841 67.1001 89.971 67.2501 93.571C67.4301 97.571 71.9101 99.671 74.4101 96.821C76.3201 94.651 76.7001 89.741 76.7701 87.511C76.7701 90.691 76.7701 99.641 77.7101 102.971C78.9001 107.051 81.9301 106.971 85.2201 105.741C86.2201 105.381 86.8001 104.121 87.1601 102.551C87.1429 103.781 87.2433 105.01 87.4601 106.221C88.1701 109.031 91.3301 110.961 94.8401 109.031C96.7001 108.031 97.2301 105.471 97.3201 103.301C97.8401 108.771 99.4401 109.911 103.32 109.911C107.89 109.911 107.32 108.331 107.32 98.131V73.311C107.32 73.311 112.77 82.621 115.47 84.551C118.17 86.481 120.85 85.261 121.91 80.861C122.97 76.461 119.18 71.941 117.79 69.311Z" fill="#FFC9B0"/>
<path id="Vector_18" d="M103.283 110.861C100.153 110.861 98.2828 110.011 97.2828 107.761C96.8423 108.646 96.1454 109.378 95.2828 109.861C94.4502 110.361 93.5123 110.661 92.5437 110.735C91.575 110.81 90.6024 110.658 89.7028 110.291C88.8996 109.935 88.1882 109.401 87.6232 108.728C87.0582 108.056 86.6544 107.263 86.4428 106.411C86.4428 106.321 86.4428 106.231 86.3828 106.121C86.1237 106.339 85.8295 106.511 85.5128 106.631C83.8528 107.231 81.4028 107.901 79.4028 106.881C78.7192 106.492 78.1254 105.963 77.6601 105.329C77.1949 104.695 76.8687 103.97 76.7028 103.201C76.2045 100.95 75.9265 98.6556 75.8728 96.3507C75.6556 96.7324 75.4046 97.0938 75.1228 97.4307C74.5067 98.1692 73.6767 98.6985 72.7472 98.9457C71.8177 99.1928 70.8344 99.1457 69.9328 98.8107C68.8566 98.4101 67.9256 97.6954 67.2605 96.7593C66.5954 95.8232 66.2269 94.7088 66.2028 93.5607C66.0228 89.2307 65.5828 61.5107 67.2828 53.9307C68.7628 47.3407 70.4128 37.3107 70.5728 31.7207C70.5728 31.4555 70.6782 31.2011 70.8657 31.0136C71.0533 30.8261 71.3076 30.7207 71.5728 30.7207H103.233C103.498 30.7207 103.752 30.8261 103.94 31.0136C104.127 31.2011 104.233 31.4555 104.233 31.7207V38.5907C106.233 40.0307 114.163 46.2007 115.633 53.2207C116.293 56.3607 116.683 59.1307 117.033 61.5707C117.503 64.8407 117.863 67.4207 118.613 68.8207C118.883 69.3207 119.253 69.9207 119.613 70.5607C121.353 73.3407 123.733 77.1607 122.793 81.0807C121.973 84.4807 120.383 85.7307 119.183 86.1707C118.442 86.4107 117.654 86.4614 116.888 86.3182C116.123 86.1749 115.406 85.8423 114.803 85.3507C112.953 84.0207 110.113 79.8207 108.233 76.8507V98.0607C108.233 99.0607 108.233 100.061 108.233 100.911C108.233 106.081 108.233 108.441 106.963 109.771C106.173 110.681 104.913 110.861 103.283 110.861ZM97.2828 102.251C97.5316 102.249 97.7719 102.341 97.9568 102.507C98.1417 102.674 98.258 102.903 98.2828 103.151C98.7728 108.341 100.103 108.861 103.283 108.861C104.603 108.861 105.283 108.711 105.643 108.381C106.373 107.641 106.363 105.121 106.333 100.941C106.333 100.071 106.333 99.1207 106.333 98.0807V73.3107C106.325 73.0849 106.394 72.8632 106.528 72.6816C106.663 72.5 106.855 72.3693 107.073 72.3107C107.284 72.2544 107.508 72.2689 107.71 72.3519C107.913 72.435 108.082 72.5821 108.193 72.7707C109.683 75.3107 113.993 82.2307 116.063 83.7107C116.405 84.0028 116.813 84.2081 117.252 84.309C117.691 84.41 118.147 84.4037 118.583 84.2907C119.633 83.9007 120.473 82.5907 120.943 80.6007C121.693 77.5007 119.573 74.0907 118.013 71.6007C117.603 70.9307 117.203 70.3007 116.913 69.7407C115.993 68.0307 115.623 65.4307 115.113 61.8407C114.773 59.4207 114.383 56.6907 113.733 53.6107C112.253 46.5307 102.823 39.9707 102.733 39.9107C102.599 39.8179 102.49 39.6937 102.415 39.549C102.34 39.4044 102.301 39.2436 102.303 39.0807V32.7907H72.6028C72.0167 40.0698 70.9139 47.298 69.3028 54.4207C67.6528 61.8107 68.0828 89.2407 68.3028 93.5207C68.3111 94.2699 68.5431 94.9996 68.9689 95.6161C69.3947 96.2325 69.9951 96.7077 70.6928 96.9807C71.2162 97.1715 71.786 97.1951 72.3234 97.0482C72.8607 96.9013 73.3392 96.5912 73.6928 96.1607C74.8828 94.8107 75.6928 91.5607 75.8028 87.4807C75.8028 87.2155 75.9082 86.9611 76.0957 86.7736C76.2833 86.5861 76.5376 86.4807 76.8028 86.4807C77.068 86.4807 77.3224 86.5861 77.5099 86.7736C77.6975 86.9611 77.8028 87.2155 77.8028 87.4807C77.8028 90.2207 77.8028 99.4007 78.7028 102.651C78.7989 103.155 78.9986 103.635 79.2896 104.058C79.5805 104.482 79.9562 104.84 80.3928 105.111C81.3928 105.611 82.8528 105.501 84.9128 104.761C85.4328 104.571 85.9128 103.671 86.2128 102.291C86.2394 102.025 86.3701 101.782 86.5764 101.613C86.7827 101.444 87.0476 101.364 87.3128 101.391C87.5781 101.417 87.8219 101.548 87.9907 101.754C88.1594 101.961 88.2394 102.225 88.2128 102.491C88.1857 103.647 88.2761 104.803 88.4828 105.941C88.6232 106.495 88.8867 107.01 89.2538 107.448C89.6208 107.886 90.082 108.236 90.6028 108.471C91.222 108.712 91.889 108.805 92.5505 108.743C93.2121 108.68 93.8498 108.464 94.4128 108.111C95.9028 107.301 96.3028 105.001 96.4128 103.221C96.4128 102.955 96.5182 102.701 96.7057 102.514C96.8933 102.326 97.1476 102.221 97.4128 102.221L97.2828 102.251Z" fill="#093F68"/>
<path id="Vector_19" d="M97.3203 104.251C97.0551 104.251 96.8007 104.146 96.6132 103.958C96.4257 103.771 96.3203 103.516 96.3203 103.251V74.7109C96.3203 74.4457 96.4257 74.1914 96.6132 74.0038C96.8007 73.8163 97.0551 73.7109 97.3203 73.7109C97.5855 73.7109 97.8399 73.8163 98.0274 74.0038C98.215 74.1914 98.3203 74.4457 98.3203 74.7109V103.251C98.3203 103.516 98.215 103.771 98.0274 103.958C97.8399 104.146 97.5855 104.251 97.3203 104.251Z" fill="#093F68"/>
<path id="Vector_20" d="M87.1641 103.501C86.8988 103.501 86.6445 103.396 86.457 103.208C86.2694 103.021 86.1641 102.766 86.1641 102.501V74.7109C86.1641 74.4457 86.2694 74.1914 86.457 74.0038C86.6445 73.8163 86.8988 73.7109 87.1641 73.7109C87.4293 73.7109 87.6836 73.8163 87.8712 74.0038C88.0587 74.1914 88.1641 74.4457 88.1641 74.7109V102.501C88.1641 102.766 88.0587 103.021 87.8712 103.208C87.6836 103.396 87.4293 103.501 87.1641 103.501Z" fill="#093F68"/>
<path id="Vector_21" d="M76.7891 88.4619C76.5238 88.4619 76.2695 88.3565 76.082 88.169C75.8944 87.9814 75.7891 87.7271 75.7891 87.4619V73.9219C75.7891 73.6567 75.8944 73.4023 76.082 73.2148C76.2695 73.0272 76.5238 72.9219 76.7891 72.9219C77.0543 72.9219 77.3086 73.0272 77.4962 73.2148C77.6837 73.4023 77.7891 73.6567 77.7891 73.9219V87.4619C77.7891 87.7271 77.6837 87.9814 77.4962 88.169C77.3086 88.3565 77.0543 88.4619 76.7891 88.4619Z" fill="#093F68"/>
<path id="Vector_22" d="M108.249 2.51153V31.7915H68.7891V3.95153C76.2994 1.99817 84.0288 1.01351 91.7891 1.02153C97.3093 1.02337 102.818 1.52205 108.249 2.51153Z" fill="#F5C60A"/>
<path id="Vector_23" d="M108.25 32.7912H68.7896C68.5243 32.7912 68.27 32.6858 68.0825 32.4983C67.8949 32.3108 67.7896 32.0564 67.7896 31.7912V3.95119C67.7824 3.7241 67.8527 3.50133 67.9891 3.31956C68.1254 3.1378 68.3195 3.00788 68.5396 2.95119C81.5611 -0.412823 95.158 -0.907568 108.39 1.50119C108.623 1.54378 108.833 1.66768 108.983 1.8508C109.133 2.03393 109.213 2.2644 109.21 2.50119V31.7912C109.21 32.0496 109.11 32.2981 108.931 32.4845C108.752 32.6709 108.508 32.7808 108.25 32.7912ZM69.7896 30.7912H107.21V3.35119C94.7759 1.20482 82.0313 1.67482 69.7896 4.73119V30.7912Z" fill="#093F68"/>
</g>
</svg>
