<svg width="20" height="20" viewBox="0 0 20 20" fill="none" xmlns="http://www.w3.org/2000/svg">
<path fill-rule="evenodd" clip-rule="evenodd" d="M1.66797 15.5568L2.85547 16.7234L6.27214 13.3068C6.71658 12.8623 7.2513 12.5637 7.8763 12.4109C8.5013 12.2582 9.48741 12.1818 10.8346 12.1818C11.6402 12.1818 12.4319 12.0012 13.2096 11.6401C13.9874 11.279 14.7096 10.7651 15.3763 10.0984C16.6263 8.84844 17.3346 7.45956 17.5013 5.93178C17.668 4.404 17.2513 3.14011 16.2513 2.14011C15.2652 1.12622 14.0082 0.702612 12.4805 0.869278C10.9527 1.03595 9.55686 1.75122 8.29297 3.01511C7.6263 3.68178 7.11241 4.404 6.7513 5.18178C6.39019 5.95956 6.20964 6.75122 6.20964 7.55678C6.20964 8.89011 6.12977 9.87969 5.97005 10.5255C5.81033 11.1714 5.51519 11.7096 5.08464 12.1401L1.66797 15.5568ZM11.2305 10.4734C10.1194 10.6401 9.23741 10.404 8.58464 9.76511C7.94575 9.11233 7.72005 8.23386 7.90755 7.12969C8.09505 6.02553 8.6263 5.03595 9.5013 4.16095C10.4041 3.27206 11.3937 2.74428 12.4701 2.57761C13.5464 2.41094 14.418 2.66094 15.0846 3.32761C15.7374 3.95261 15.977 4.81719 15.8034 5.92136C15.6298 7.02553 15.0985 8.02206 14.2096 8.91094C13.3346 9.78594 12.3416 10.3068 11.2305 10.4734ZM16.2513 15.834C16.2513 16.5243 15.6917 17.084 15.0013 17.084C14.3109 17.084 13.7513 16.5243 13.7513 15.834C13.7513 15.1436 14.3109 14.584 15.0013 14.584C15.6917 14.584 16.2513 15.1436 16.2513 15.834ZM17.5013 15.834C17.5013 17.2147 16.382 18.334 15.0013 18.334C13.6206 18.334 12.5013 17.2147 12.5013 15.834C12.5013 14.4533 13.6206 13.334 15.0013 13.334C16.382 13.334 17.5013 14.4533 17.5013 15.834Z" fill="white"/>
</svg>
