<svg width="20" height="20" viewBox="0 0 20 20" fill="none" xmlns="http://www.w3.org/2000/svg">
<path fill-rule="evenodd" clip-rule="evenodd" d="M16.7932 7.50065C16.7932 9.51925 15.3578 11.2026 13.4519 11.5856C13.3067 8.94004 11.1872 6.82049 8.54162 6.67526C8.92461 4.76944 10.6079 3.33398 12.6265 3.33398C14.9277 3.33398 16.7932 5.19946 16.7932 7.50065ZM12.4182 3.75065C11.3827 3.75065 10.5432 4.49684 10.5432 5.41732C10.5432 6.33779 11.3827 7.08398 12.4182 7.08398C13.4537 7.08398 14.2932 6.33779 14.2932 5.41732C14.2932 4.49684 13.4537 3.75065 12.4182 3.75065ZM13.125 12.084C13.125 14.8454 10.8864 17.084 8.125 17.084C5.36358 17.084 3.125 14.8454 3.125 12.084C3.125 9.32256 5.36358 7.08398 8.125 7.08398C10.8864 7.08398 13.125 9.32256 13.125 12.084ZM9.375 12.084C9.375 13.4647 8.25571 14.584 6.875 14.584C5.49429 14.584 4.375 13.4647 4.375 12.084C4.375 10.7033 5.49429 9.58398 6.875 9.58398C8.25571 9.58398 9.375 10.7033 9.375 12.084Z" fill="white"/>
</svg>
