<svg width="20" height="20" viewBox="0 0 20 20" fill="none" xmlns="http://www.w3.org/2000/svg">
<path fill-rule="evenodd" clip-rule="evenodd" d="M16.447 3.5155C17.0979 4.16637 17.0979 5.22165 16.447 5.87252L15.8578 6.46178L13.5007 4.10475L14.09 3.5155C14.7409 2.86463 15.7961 2.86463 16.447 3.5155ZM17.3309 2.63162C18.4699 3.77064 18.4699 5.61738 17.3309 6.7564L15.8578 8.22954L11.733 4.10475L13.2061 2.63162C14.3451 1.49259 16.1919 1.49259 17.3309 2.63162ZM3.30386 9.71115L11.1451 6.46312L13.4994 8.81746L10.2514 16.6586C10.0531 16.5144 9.83923 16.3569 9.6154 16.1895C8.53842 15.3841 7.28339 14.3866 6.42967 13.5328C5.57595 12.6791 4.57846 11.4241 3.773 10.3471C3.6056 10.1233 3.44814 9.90937 3.30386 9.71115ZM11.4383 4.98864L14.9739 8.52417L10.807 18.5836C10.807 18.5836 10.3859 18.2972 9.75959 17.8459C8.60111 17.011 6.74074 15.6117 5.54578 14.4167C4.35083 13.2218 2.95153 11.3614 2.11664 10.2029C1.6653 9.57666 1.37891 9.15552 1.37891 9.15552L11.4383 4.98864Z" fill="white"/>
</svg>
