<svg width="20" height="20" viewBox="0 0 20 20" fill="none" xmlns="http://www.w3.org/2000/svg">
<path fill-rule="evenodd" clip-rule="evenodd" d="M16.25 7.49935C16.25 8.81271 15.6976 9.99704 14.8124 10.8327H8.52088C7.63574 9.99704 7.08333 8.81271 7.08333 7.49935C7.08333 4.96804 9.13536 2.91602 11.6667 2.91602C14.198 2.91602 16.25 4.96804 16.25 7.49935ZM8.36329 12.3079C8.57479 12.4534 8.79637 12.5854 9.02677 12.7025C9.52037 13.0097 10.1428 13.4298 10.4167 13.7493C10.7389 14.1253 10.8173 14.6405 10.8333 14.9472V18.3327H12.5V14.9472C12.516 14.6405 12.5944 14.1253 12.9167 13.7493C13.1906 13.4298 13.813 13.0097 14.3066 12.7025C14.537 12.5854 14.7585 12.4534 14.97 12.3079C14.9895 12.2968 15 12.291 15 12.291H14.9944C16.5088 11.2373 17.5 9.48409 17.5 7.49935C17.5 4.27769 14.8883 1.66602 11.6667 1.66602C8.44501 1.66602 5.83333 4.27769 5.83333 7.49935C5.83333 9.48409 6.82454 11.2373 8.33894 12.291H8.33333C8.33333 12.291 8.3438 12.2968 8.36329 12.3079ZM6.25 14.9993C6.25 15.6897 5.69036 16.2493 5 16.2493C4.30964 16.2493 3.75 15.6897 3.75 14.9993C3.75 14.309 4.30964 13.7493 5 13.7493C5.69036 13.7493 6.25 14.309 6.25 14.9993ZM7.5 14.9993C7.5 16.3801 6.38071 17.4993 5 17.4993C3.61929 17.4993 2.5 16.3801 2.5 14.9993C2.5 13.6186 3.61929 12.4993 5 12.4993C6.38071 12.4993 7.5 13.6186 7.5 14.9993Z" fill="white"/>
</svg>
