<svg width="260" height="259" viewBox="0 0 260 259" fill="none" xmlns="http://www.w3.org/2000/svg">
<g clip-path="url(#clip0_1779_5069)">
<line x1="18.5" y1="2.18555e-08" x2="18.5" y2="259" stroke="#333333"/>
<line x1="32.5" y1="2.18555e-08" x2="32.5" y2="259" stroke="#333333"/>
<line x1="46.5" y1="2.18555e-08" x2="46.5" y2="259" stroke="#333333"/>
<line x1="60.5" y1="2.18555e-08" x2="60.5" y2="259" stroke="#333333"/>
<line x1="74.5" y1="2.18555e-08" x2="74.5" y2="259" stroke="#333333"/>
<line x1="88.5" y1="2.18555e-08" x2="88.5" y2="259" stroke="#333333"/>
<line x1="102.5" y1="2.18555e-08" x2="102.5" y2="259" stroke="#333333"/>
<line x1="116.5" y1="2.18555e-08" x2="116.5" y2="259" stroke="#333333"/>
<line x1="130.5" y1="2.18555e-08" x2="130.5" y2="259" stroke="#333333"/>
<line x1="144.5" y1="2.18555e-08" x2="144.5" y2="259" stroke="#333333"/>
<line x1="158.5" y1="2.18555e-08" x2="158.5" y2="259" stroke="#333333"/>
<line x1="172.5" y1="2.18555e-08" x2="172.5" y2="259" stroke="#333333"/>
<line x1="186.5" y1="2.18555e-08" x2="186.5" y2="259" stroke="#333333"/>
<line x1="200.5" y1="2.18555e-08" x2="200.5" y2="259" stroke="#333333"/>
<line x1="214.5" y1="2.18555e-08" x2="214.5" y2="259" stroke="#333333"/>
<line x1="228.5" y1="2.18555e-08" x2="228.5" y2="259" stroke="#333333"/>
<line x1="242.5" y1="2.18555e-08" x2="242.5" y2="259" stroke="#333333"/>
<line x1="259.5" y1="18" x2="0.5" y2="18" stroke="#333333"/>
<line x1="259.5" y1="32" x2="0.5" y2="32" stroke="#333333"/>
<line x1="259.5" y1="46" x2="0.5" y2="46" stroke="#333333"/>
<line x1="259.5" y1="60" x2="0.5" y2="60" stroke="#333333"/>
<line x1="259.5" y1="74" x2="0.5" y2="74" stroke="#333333"/>
<line x1="259.5" y1="88" x2="0.5" y2="88" stroke="#333333"/>
<line x1="259.5" y1="102" x2="0.5" y2="102" stroke="#333333"/>
<line x1="259.5" y1="116" x2="0.5" y2="116" stroke="#333333"/>
<line x1="259.5" y1="130" x2="0.5" y2="130" stroke="#333333"/>
<line x1="259.5" y1="144" x2="0.5" y2="144" stroke="#333333"/>
<line x1="259.5" y1="158" x2="0.5" y2="158" stroke="#333333"/>
<line x1="259.5" y1="172" x2="0.5" y2="172" stroke="#333333"/>
<line x1="259.5" y1="186" x2="0.5" y2="186" stroke="#333333"/>
<line x1="259.5" y1="200" x2="0.5" y2="200" stroke="#333333"/>
<line x1="259.5" y1="214" x2="0.5" y2="214" stroke="#333333"/>
<line x1="259.5" y1="228" x2="0.5" y2="228" stroke="#333333"/>
<line x1="259.5" y1="242" x2="0.5" y2="242" stroke="#333333"/>
<path d="M130 172.384C115.644 161.691 104.93 151.334 97.8583 141.314C90.7861 131.295 87.25 121.506 87.25 111.949C87.25 104.73 88.5451 98.4008 91.1352 92.9612C93.7254 87.5217 97.0572 82.9628 101.13 79.2846C105.204 75.6064 109.786 72.8477 114.878 71.0086C119.969 69.1696 125.01 68.25 130 68.25C134.99 68.25 140.03 69.1696 145.122 71.0086C150.214 72.8477 154.796 75.6064 158.869 79.2846C162.943 82.9628 166.274 87.5217 168.865 92.9612C171.455 98.4008 172.75 104.73 172.75 111.949C172.75 121.506 169.214 131.295 162.141 141.314C155.069 151.334 144.355 161.691 130 172.384ZM130 122.083C133.077 122.083 135.694 121.005 137.849 118.849C140.005 116.694 141.083 114.077 141.083 111C141.083 107.922 140.005 105.306 137.849 103.15C135.694 100.995 133.077 99.9167 130 99.9167C126.922 99.9167 124.306 100.995 122.15 103.15C119.995 105.306 118.917 107.922 118.917 111C118.917 114.077 119.995 116.694 122.15 118.849C124.306 121.005 126.922 122.083 130 122.083ZM87.25 191.75V182.25H172.75V191.75H87.25Z" fill="white"/>
</g>
<defs>
<clipPath id="clip0_1779_5069">
<rect x="0.5" width="259" height="259" rx="129.5" fill="white"/>
</clipPath>
</defs>
</svg>
