<svg width="259" height="259" viewBox="0 0 259 259" fill="none" xmlns="http://www.w3.org/2000/svg">
<g clip-path="url(#clip0_874_6430)">
<rect width="259" height="259" rx="129.5" fill="#1F1F1F"/>
<line x1="18" y1="2.18555e-08" x2="18" y2="259" stroke="#333333"/>
<line x1="32" y1="2.18555e-08" x2="32" y2="259" stroke="#333333"/>
<line x1="46" y1="2.18555e-08" x2="46" y2="259" stroke="#333333"/>
<line x1="60" y1="2.18555e-08" x2="60" y2="259" stroke="#333333"/>
<line x1="74" y1="2.18555e-08" x2="74" y2="259" stroke="#333333"/>
<line x1="88" y1="2.18555e-08" x2="88" y2="259" stroke="#333333"/>
<line x1="102" y1="2.18555e-08" x2="102" y2="259" stroke="#333333"/>
<line x1="116" y1="2.18555e-08" x2="116" y2="259" stroke="#333333"/>
<line x1="130" y1="2.18555e-08" x2="130" y2="259" stroke="#333333"/>
<line x1="144" y1="2.18555e-08" x2="144" y2="259" stroke="#333333"/>
<line x1="158" y1="2.18555e-08" x2="158" y2="259" stroke="#333333"/>
<line x1="172" y1="2.18555e-08" x2="172" y2="259" stroke="#333333"/>
<line x1="186" y1="2.18555e-08" x2="186" y2="259" stroke="#333333"/>
<line x1="200" y1="2.18555e-08" x2="200" y2="259" stroke="#333333"/>
<line x1="214" y1="2.18555e-08" x2="214" y2="259" stroke="#333333"/>
<line x1="228" y1="2.18555e-08" x2="228" y2="259" stroke="#333333"/>
<line x1="242" y1="2.18555e-08" x2="242" y2="259" stroke="#333333"/>
<line x1="259" y1="18" x2="-4.37112e-08" y2="18" stroke="#333333"/>
<line x1="259" y1="32" x2="-4.37112e-08" y2="32" stroke="#333333"/>
<line x1="259" y1="46" x2="-4.37112e-08" y2="46" stroke="#333333"/>
<line x1="259" y1="60" x2="-4.37112e-08" y2="60" stroke="#333333"/>
<line x1="259" y1="74" x2="-4.37112e-08" y2="74" stroke="#333333"/>
<line x1="259" y1="88" x2="-4.37112e-08" y2="88" stroke="#333333"/>
<line x1="259" y1="102" x2="-4.37112e-08" y2="102" stroke="#333333"/>
<line x1="259" y1="116" x2="-4.37112e-08" y2="116" stroke="#333333"/>
<line x1="259" y1="130" x2="-4.37112e-08" y2="130" stroke="#333333"/>
<line x1="259" y1="144" x2="-4.37112e-08" y2="144" stroke="#333333"/>
<line x1="259" y1="158" x2="-4.37112e-08" y2="158" stroke="#333333"/>
<line x1="259" y1="172" x2="-4.37112e-08" y2="172" stroke="#333333"/>
<line x1="259" y1="186" x2="-4.37112e-08" y2="186" stroke="#333333"/>
<line x1="259" y1="200" x2="-4.37112e-08" y2="200" stroke="#333333"/>
<line x1="259" y1="214" x2="-4.37112e-08" y2="214" stroke="#333333"/>
<line x1="259" y1="228" x2="-4.37112e-08" y2="228" stroke="#333333"/>
<line x1="259" y1="242" x2="-4.37112e-08" y2="242" stroke="#333333"/>
<path d="M74.9488 183.833C71.7496 183.833 69.0417 182.725 66.825 180.508C64.6083 178.291 63.5 175.583 63.5 172.384V100.282C63.5 97.0829 64.6083 94.375 66.825 92.1583C69.0417 89.9417 71.7496 88.8333 74.9488 88.8333H94.2897L106.006 76.1667H141.448V85.6665H110.147L98.5281 98.3332H74.9488C74.3804 98.3332 73.9134 98.5159 73.548 98.8813C73.1826 99.2468 72.9998 99.7137 72.9998 100.282V172.384C72.9998 172.953 73.1826 173.42 73.548 173.785C73.9134 174.15 74.3804 174.333 74.9488 174.333H172.384C172.953 174.333 173.42 174.15 173.785 173.785C174.15 173.42 174.333 172.953 174.333 172.384V118.551H183.833V172.384C183.833 175.583 182.725 178.291 180.508 180.508C178.291 182.725 175.583 183.833 172.384 183.833H74.9488ZM174.333 98.3332V85.6665H161.667V76.1667H174.333V63.5H183.833V76.1667H196.5V85.6665H183.833V98.3332H174.333ZM123.667 162.397C130.934 162.397 137.094 159.87 142.149 154.815C147.203 149.761 149.73 143.6 149.73 136.333C149.73 129.066 147.203 122.905 142.149 117.851C137.094 112.797 130.934 110.269 123.667 110.269C116.399 110.269 110.239 112.797 105.184 117.851C100.13 122.905 97.6026 129.066 97.6026 136.333C97.6026 143.6 100.13 149.761 105.184 154.815C110.239 159.87 116.399 162.397 123.667 162.397ZM123.667 152.897C118.99 152.897 115.06 151.306 111.877 148.123C108.694 144.94 107.102 141.01 107.102 136.333C107.102 131.656 108.694 127.726 111.877 124.543C115.06 121.36 118.99 119.769 123.667 119.769C128.343 119.769 132.273 121.36 135.456 124.543C138.639 127.726 140.231 131.656 140.231 136.333C140.231 141.01 138.639 144.94 135.456 148.123C132.273 151.306 128.343 152.897 123.667 152.897Z" fill="white"/>
</g>
<defs>
<clipPath id="clip0_874_6430">
<rect width="259" height="259" rx="129.5" fill="white"/>
</clipPath>
</defs>
</svg>
