<svg width="20" height="20" viewBox="0 0 20 20" fill="none" xmlns="http://www.w3.org/2000/svg">
<path fill-rule="evenodd" clip-rule="evenodd" d="M16.4485 3.51458C17.0994 4.16546 17.0994 5.22073 16.4485 5.87161L15.8592 6.46086L13.5022 4.10384L14.0915 3.51458C14.7423 2.86371 15.7976 2.86371 16.4485 3.51458ZM17.3324 2.6307C18.4714 3.76973 18.4714 5.61646 17.3324 6.75549L15.8592 8.22863L11.7344 4.10384L13.2076 2.6307C14.3466 1.49167 16.1933 1.49167 17.3324 2.6307ZM3.30533 9.71023L11.1465 6.4622L13.5009 8.81654L10.2528 16.6577C10.0546 16.5135 9.84069 16.356 9.61686 16.1886C8.53989 15.3831 7.28486 14.3857 6.43113 13.5319C5.57741 12.6782 4.57993 11.4232 3.77447 10.3462C3.60706 10.1224 3.4496 9.90846 3.30533 9.71023ZM11.4398 4.98772L14.9753 8.52326L10.8085 18.5827C10.8085 18.5827 10.3873 18.2963 9.76105 17.845C8.60258 17.0101 6.74221 15.6108 5.54725 14.4158C4.35229 13.2209 2.953 11.3605 2.1181 10.202C1.66677 9.57574 1.38037 9.1546 1.38037 9.1546L11.4398 4.98772Z" fill="#242424"/>
</svg>
