<svg width="20" height="20" viewBox="0 0 20 20" fill="none" xmlns="http://www.w3.org/2000/svg">
<g id="Sports=lawnTennis, Active=off">
<path id="Union" fill-rule="evenodd" clip-rule="evenodd" d="M1.6665 15.5561L2.854 16.7228L6.27067 13.3061C6.71512 12.8617 7.24984 12.5631 7.87484 12.4103C8.49984 12.2575 9.48595 12.1811 10.8332 12.1811C11.6387 12.1811 12.4304 12.0006 13.2082 11.6394C13.9859 11.2783 14.7082 10.7644 15.3748 10.0978C16.6248 8.84777 17.3332 7.45888 17.4998 5.93111C17.6665 4.40333 17.2498 3.13944 16.2498 2.13944C15.2637 1.12555 14.0068 0.70194 12.479 0.868607C10.9512 1.03527 9.55539 1.75055 8.2915 3.01444C7.62484 3.68111 7.11095 4.40333 6.74984 5.18111C6.38873 5.95888 6.20817 6.75055 6.20817 7.55611C6.20817 8.88944 6.12831 9.87902 5.96859 10.5249C5.80886 11.1707 5.51373 11.7089 5.08317 12.1394L1.6665 15.5561ZM11.229 10.4728C10.1179 10.6394 9.23595 10.4033 8.58317 9.76444C7.94428 9.11166 7.71859 8.23319 7.90609 7.12902C8.09359 6.02486 8.62484 5.03527 9.49984 4.16027C10.4026 3.27138 11.3922 2.74361 12.4686 2.57694C13.545 2.41027 14.4165 2.66027 15.0832 3.32694C15.7359 3.95194 15.9755 4.81652 15.8019 5.92069C15.6283 7.02486 15.0971 8.02138 14.2082 8.91027C13.3332 9.78527 12.3401 10.3061 11.229 10.4728ZM16.2498 15.8333C16.2498 16.5237 15.6902 17.0833 14.9998 17.0833C14.3095 17.0833 13.7498 16.5237 13.7498 15.8333C13.7498 15.143 14.3095 14.5833 14.9998 14.5833C15.6902 14.5833 16.2498 15.143 16.2498 15.8333ZM17.4998 15.8333C17.4998 17.214 16.3806 18.3333 14.9998 18.3333C13.6191 18.3333 12.4998 17.214 12.4998 15.8333C12.4998 14.4526 13.6191 13.3333 14.9998 13.3333C16.3806 13.3333 17.4998 14.4526 17.4998 15.8333Z" fill="black"/>
</g>
</svg>
