<svg width="20" height="20" viewBox="0 0 20 20" fill="none" xmlns="http://www.w3.org/2000/svg">
<g id="Sports=Pool, Active=off">
<path id="Union" fill-rule="evenodd" clip-rule="evenodd" d="M16.7932 7.49998C16.7932 9.51858 15.3578 11.2019 13.4519 11.5849C13.3067 8.93937 11.1872 6.81982 8.54162 6.67459C8.92461 4.76877 10.6079 3.33331 12.6265 3.33331C14.9277 3.33331 16.7932 5.19879 16.7932 7.49998ZM12.4182 3.74998C11.3827 3.74998 10.5432 4.49617 10.5432 5.41665C10.5432 6.33712 11.3827 7.08331 12.4182 7.08331C13.4537 7.08331 14.2932 6.33712 14.2932 5.41665C14.2932 4.49617 13.4537 3.74998 12.4182 3.74998ZM13.125 12.0833C13.125 14.8447 10.8864 17.0833 8.125 17.0833C5.36358 17.0833 3.125 14.8447 3.125 12.0833C3.125 9.32189 5.36358 7.08331 8.125 7.08331C10.8864 7.08331 13.125 9.32189 13.125 12.0833ZM9.375 12.0833C9.375 13.464 8.25571 14.5833 6.875 14.5833C5.49429 14.5833 4.375 13.464 4.375 12.0833C4.375 10.7026 5.49429 9.58331 6.875 9.58331C8.25571 9.58331 9.375 10.7026 9.375 12.0833Z" fill="black"/>
</g>
</svg>
