<svg width="20" height="20" viewBox="0 0 20 20" fill="none" xmlns="http://www.w3.org/2000/svg">
<path fill-rule="evenodd" clip-rule="evenodd" d="M16.25 7.50002C16.25 8.81338 15.6976 9.99771 14.8124 10.8334H8.52088C7.63574 9.99771 7.08333 8.81338 7.08333 7.50002C7.08333 4.96872 9.13536 2.91669 11.6667 2.91669C14.198 2.91669 16.25 4.96872 16.25 7.50002ZM8.36329 12.3085C8.57479 12.4541 8.79637 12.5861 9.02677 12.7032C9.52037 13.0104 10.1428 13.4305 10.4167 13.75C10.7389 14.126 10.8173 14.6412 10.8333 14.9479V18.3334H12.5V14.9479C12.516 14.6412 12.5944 14.126 12.9167 13.75C13.1906 13.4305 13.813 13.0104 14.3066 12.7032C14.537 12.5861 14.7585 12.4541 14.97 12.3085C14.9895 12.2975 15 12.2917 15 12.2917H14.9944C16.5088 11.238 17.5 9.48476 17.5 7.50002C17.5 4.27836 14.8883 1.66669 11.6667 1.66669C8.44501 1.66669 5.83333 4.27836 5.83333 7.50002C5.83333 9.48476 6.82454 11.238 8.33894 12.2917H8.33333C8.33333 12.2917 8.3438 12.2975 8.36329 12.3085ZM6.25 15C6.25 15.6904 5.69036 16.25 5 16.25C4.30964 16.25 3.75 15.6904 3.75 15C3.75 14.3097 4.30964 13.75 5 13.75C5.69036 13.75 6.25 14.3097 6.25 15ZM7.5 15C7.5 16.3807 6.38071 17.5 5 17.5C3.61929 17.5 2.5 16.3807 2.5 15C2.5 13.6193 3.61929 12.5 5 12.5C6.38071 12.5 7.5 13.6193 7.5 15Z" fill="black"/>
</svg>
